<svg width="32" height="32" viewBox="0 0 32 32" fill="none" xmlns="http://www.w3.org/2000/svg">
<path d="M2.66671 7.02667L4.37337 5.33334L26.6667 27.6267L24.9734 29.3333L20.8667 25.2267C19.3334 25.7333 17.7067 26 16 26C9.33337 26 3.64004 21.8533 1.33337 16C2.25337 13.6533 3.72004 11.5867 5.58671 9.94667L2.66671 7.02667ZM16 12C17.0609 12 18.0783 12.4214 18.8285 13.1716C19.5786 13.9217 20 14.9391 20 16C20.0007 16.4541 19.9241 16.905 19.7734 17.3333L14.6667 12.2267C15.0951 12.076 15.546 11.9993 16 12ZM16 6C22.6667 6 28.36 10.1467 30.6667 16C29.5779 18.7639 27.7288 21.1631 25.3334 22.92L23.44 21.0133C25.284 19.7379 26.7711 18.0121 27.76 16C26.6822 13.7998 25.0088 11.9462 22.9299 10.6498C20.851 9.35344 18.45 8.66635 16 8.66667C14.5467 8.66667 13.12 8.90667 11.7867 9.33334L9.73337 7.29334C11.6534 6.46667 13.7734 6 16 6ZM4.24004 16C5.31784 18.2002 6.99131 20.0538 9.07022 21.3502C11.1491 22.6466 13.5501 23.3337 16 23.3333C16.92 23.3333 17.8267 23.24 18.6667 23.0533L15.6267 20C14.6989 19.9006 13.8331 19.4865 13.1733 18.8267C12.5135 18.1669 12.0995 17.3011 12 16.3733L7.46671 11.8267C6.14671 12.96 5.04004 14.3733 4.24004 16Z" fill="#EBEBEB"/>
</svg>
