<svg width="32" height="32" viewBox="0 0 32 32" fill="none" xmlns="http://www.w3.org/2000/svg">
<path d="M14.6666 24H17.3333V21.3333H14.6666V24ZM16 2.66666C14.249 2.66666 12.5152 3.01154 10.8975 3.6816C9.27984 4.35167 7.80998 5.33379 6.57187 6.57191C4.07138 9.07239 2.66663 12.4638 2.66663 16C2.66663 19.5362 4.07138 22.9276 6.57187 25.4281C7.80998 26.6662 9.27984 27.6483 10.8975 28.3184C12.5152 28.9885 14.249 29.3333 16 29.3333C19.5362 29.3333 22.9276 27.9286 25.4281 25.4281C27.9285 22.9276 29.3333 19.5362 29.3333 16C29.3333 14.249 28.9884 12.5152 28.3184 10.8976C27.6483 9.27988 26.6662 7.81002 25.4281 6.57191C24.1899 5.33379 22.7201 4.35167 21.1024 3.6816C19.4847 3.01154 17.7509 2.66666 16 2.66666ZM16 26.6667C10.12 26.6667 5.33329 21.88 5.33329 16C5.33329 10.12 10.12 5.33333 16 5.33333C21.88 5.33333 26.6666 10.12 26.6666 16C26.6666 21.88 21.88 26.6667 16 26.6667ZM16 8C14.5855 8 13.2289 8.5619 12.2287 9.56209C11.2285 10.5623 10.6666 11.9188 10.6666 13.3333H13.3333C13.3333 12.6261 13.6142 11.9478 14.1143 11.4477C14.6144 10.9476 15.2927 10.6667 16 10.6667C16.7072 10.6667 17.3855 10.9476 17.8856 11.4477C18.3857 11.9478 18.6666 12.6261 18.6666 13.3333C18.6666 16 14.6666 15.6667 14.6666 20H17.3333C17.3333 17 21.3333 16.6667 21.3333 13.3333C21.3333 11.9188 20.7714 10.5623 19.7712 9.56209C18.771 8.5619 17.4144 8 16 8Z" fill="#EBEBEB"/>
</svg>
