<svg width="32" height="32" viewBox="0 0 32 32" fill="none" xmlns="http://www.w3.org/2000/svg">
<path d="M12.2266 5.33333C12.5021 4.55261 13.0129 3.87657 13.6888 3.39838C14.3646 2.92019 15.1721 2.66339 16 2.66339C16.8278 2.66339 17.6353 2.92019 18.3112 3.39838C18.987 3.87657 19.4978 4.55261 19.7733 5.33333M27.3333 7.99999H4.66663M25.1106 11.3333L24.4973 20.5333C24.2613 24.072 24.144 25.8413 22.9906 26.92C21.8373 27.9987 20.0626 28 16.516 28H15.484C11.9373 28 10.1626 28 9.00929 26.92C7.85596 25.8413 7.73729 24.072 7.50263 20.5333L6.88929 11.3333M12.6666 14.6667L13.3333 21.3333M19.3333 14.6667L18.6666 21.3333" stroke="#EBEBEB" stroke-width="2" stroke-linecap="round"/>
</svg>
